# xmcd
#
# Track frame offsets:
#       150
#       15740
#       32337
#       50699
#       68633
#       87215
#       108339
#       128917
#       152566
#       167057
#
# Disc length: 2567 seconds
#
# Revision: 0
# Processed by: cddbd v1.5.2PL0 Copyright (c) Steve Scherf et al.
# Submitted via: WaveLab 4.01
#
DISCID=740a050a
DTITLE=ANUHEL - TRUE LOVE
DYEAR=1900
DGENRE=
TTITLE0=The Butterfly
TTITLE1=Tonight
TTITLE2=Each Man
TTITLE3=Too Much To Ask
TTITLE4=The Snake
TTITLE5=Unable To love
TTITLE6=Faith
TTITLE7=I Wish It Were A Drean
TTITLE8=True Love
TTITLE9=I Can't Make You Love Me
EXTD=
EXTT0=
EXTT1=
EXTT2=
EXTT3=
EXTT4=
EXTT5=
EXTT6=
EXTT7=
EXTT8=
EXTT9=
PLAYORDER=
